# xmcd
#
# Track frame offsets:
#	150
#	16885
#	32713
#	50302
#	65960
#	79090
#	96259
#	114649
#	133149
#	151598
#	172447
#	192709
#	213746
#	229300
#	245527
#	262016
#	275737
#	294779
#	312709
#	331802
#	343217
#
# Disc length: 4787 seconds
#
# Revision: 0
# Processed by: cddbd v1.5.1PL0 Copyright (c) Steve Scherf et al.
# Submitted via: dBpowerAMP V4.0
#
DISCID=5012b115
DTITLE=Bruno e Marrone - Ao vivo
DYEAR=2004
DGENRE=Sertanejo (BR)
TTITLE0=Inevitável
TTITLE1=Agora vai - Passou da conta
TTITLE2=Coração de Pedra
TTITLE3=Deixa
TTITLE4=Trânsito Parado
TTITLE5=O amor está aqui
TTITLE6=Credo em cruz Ave Maria/ Pra lá que eu vou
TTITLE7=Meu disfarce
TTITLE8=Te amar foi ilusão 
TTITLE9=Será
TTITLE10=Por um minuto
TTITLE11=Se tiver coragem joga fora
TTITLE12=Ligação Urbana
TTITLE13=Então pode ir
TTITLE14=Sonhos Perdidos
TTITLE15=Grito de Alerta
TTITLE16=Se não tivesso ido
TTITLE17=Menina
TTITLE18=Vai dar namoro
TTITLE19=Dormi na Praça
TTITLE20=Doce Desejo
EXTD=
EXTT0=
EXTT1=
EXTT2=
EXTT3=
EXTT4=
EXTT5=
EXTT6=
EXTT7=
EXTT8=
EXTT9=
EXTT10=
EXTT11=
EXTT12=
EXTT13=
EXTT14=
EXTT15=
EXTT16=
EXTT17=
EXTT18=
EXTT19=
EXTT20=
PLAYORDER=
